<svg width="285" height="237" viewBox="0 0 285 237" fill="none" xmlns="http://www.w3.org/2000/svg">
<g clip-path="url(#clip0_12_15)">
<path d="M282.082 76.511L267.808 62.238C265.906 60.332 263.715 59.382 261.238 59.382C258.767 59.382 256.577 60.332 254.675 62.238L142.466 174.441L30.262 62.241C28.359 60.335 26.169 59.385 23.695 59.385C21.22 59.385 19.03 60.335 17.128 62.241L2.856 76.515C0.95 78.417 0 80.607 0 83.082C0 85.555 0.953 87.745 2.856 89.647L135.899 222.693C137.801 224.596 139.992 225.547 142.466 225.547C144.94 225.547 147.127 224.596 149.028 222.693L282.082 89.647C283.984 87.744 284.929 85.554 284.929 83.082C284.929 80.607 283.984 78.417 282.082 76.511Z" fill="white"/>
</g>
<defs>
<clipPath id="clip0_12_15">
<rect width="284.929" height="284.929" fill="white"/>
</clipPath>
</defs>
</svg>
