<svg width="442" height="624" viewBox="0 0 442 624" fill="none" xmlns="http://www.w3.org/2000/svg">
<rect width="442" height="624" fill="white"/>
<circle cx="141.5" cy="47.5" r="9.5" stroke="black" stroke-width="2"/>
<path d="M151 187.5C151 192.747 146.747 197 141.5 197C136.253 197 132 192.747 132 187.5C132 182.253 136.253 178 141.5 178C146.747 178 151 182.253 151 187.5Z" stroke="black" stroke-width="2"/>
<line x1="142" y1="58" x2="142" y2="177" stroke="black" stroke-width="2"/>
<path d="M151 327.5C151 332.747 146.747 337 141.5 337C136.253 337 132 332.747 132 327.5C132 322.253 136.253 318 141.5 318C146.747 318 151 322.253 151 327.5Z" stroke="black" stroke-width="2"/>
<line x1="142" y1="198" x2="142" y2="317" stroke="black" stroke-width="2"/>
<path d="M151 467.5C151 472.747 146.747 477 141.5 477C136.253 477 132 472.747 132 467.5C132 462.253 136.253 458 141.5 458C146.747 458 151 462.253 151 467.5Z" stroke="black" stroke-width="2"/>
<line x1="142" y1="338" x2="142" y2="457" stroke="black" stroke-width="2"/>
</svg>
